<?xml version="1.0" encoding="UTF-8" standalone="no"?>
<!-- Creator: CorelDRAW -->

<svg
   xml:space="preserve"
   width="8in"
   height="5in"
   version="1.0"
   style="shape-rendering:geometricPrecision; text-rendering:geometricPrecision; image-rendering:optimizeQuality; fill-rule:evenodd; clip-rule:evenodd"
   viewBox="0 0 8000 5000"
   id="svg26"
   sodipodi:docname="OnlyEduLogo.svgz"
   xmlns:inkscape="http://www.inkscape.org/namespaces/inkscape"
   xmlns:sodipodi="http://sodipodi.sourceforge.net/DTD/sodipodi-0.dtd"
   xmlns="http://www.w3.org/2000/svg"
   xmlns:svg="http://www.w3.org/2000/svg"><sodipodi:namedview
   id="namedview28"
   pagecolor="#ffffff"
   bordercolor="#000000"
   borderopacity="0.25"
   inkscape:showpageshadow="2"
   inkscape:pageopacity="0.0"
   inkscape:pagecheckerboard="0"
   inkscape:deskcolor="#d1d1d1"
   inkscape:document-units="in" />
 <defs
   id="defs4">
  <style
   type="text/css"
   id="style2">
   <![CDATA[
    .fil4 {fill:white}
    .fil2 {fill:#F07F1B}
    .fil3 {fill:#5E5A71}
    .fil0 {fill:#F07F1B;fill-rule:nonzero}
    .fil1 {fill:#5E5A71;fill-rule:nonzero}
   ]]>
  </style>
 </defs>
 <g
   id="Layer_x0020_1"
   inkscape:label="Layer 1">
  <metadata
   id="CorelCorpID_0Corel-Layer" />
  <path
   class="fil0"
   d="M2833.02 3368.94l0 -209.06 146.96 0 0 35.33 -106.76 0 0 46.43 99.27 0 0 35.33 -99.27 0 0 56.65 110.64 0 0 35.33 -150.85 0zm352.14 -209.06l73.11 0c16.5,0 29.07,1.31 37.71,3.99 11.6,3.6 21.58,10.03 29.85,19.27 8.32,9.2 14.6,20.49 18.95,33.87 4.3,13.33 6.47,29.83 6.47,49.4 0,17.22 -2.04,32.02 -6.1,44.48 -4.94,15.23 -12.02,27.54 -21.21,36.93 -6.93,7.15 -16.31,12.7 -28.1,16.69 -8.83,2.97 -20.61,4.43 -35.4,4.43l-75.29 0 0 -209.06zm40.21 35.33l0 138.4 29.81 0c11.14,0 19.18,-0.68 24.12,-2 6.52,-1.7 11.88,-4.62 16.13,-8.71 4.3,-4.09 7.77,-10.8 10.44,-20.15 2.73,-9.34 4.07,-22.14 4.07,-38.3 0,-16.16 -1.34,-28.52 -4.07,-37.18 -2.68,-8.67 -6.47,-15.38 -11.32,-20.24 -4.85,-4.82 -11,-8.13 -18.48,-9.83 -5.55,-1.31 -16.5,-2 -32.77,-2l-17.93 0zm327.23 -35.33l40.21 0 0 113.29c0,18 0.51,29.64 1.48,34.94 1.71,8.56 5.73,15.48 12.11,20.63 6.42,5.21 15.16,7.79 26.25,7.79 11.23,0 19.73,-2.43 25.46,-7.35 5.73,-4.91 9.15,-10.9 10.3,-18.06 1.16,-7.15 1.76,-18.98 1.76,-35.52l0 -115.72 40.21 0 0 109.93c0,25.11 -1.06,42.87 -3.23,53.24 -2.17,10.37 -6.15,19.13 -11.97,26.28 -5.78,7.15 -13.54,12.8 -23.24,17.03 -9.75,4.23 -22.42,6.37 -38.09,6.37 -18.9,0 -33.22,-2.29 -42.98,-6.91 -9.75,-4.62 -17.47,-10.61 -23.16,-18.01 -5.68,-7.39 -9.38,-15.08 -11.18,-23.21 -2.64,-11.97 -3.93,-29.69 -3.93,-53.09l0 -111.64zm494.44 131.98l38.82 12.56c-5.96,23.02 -15.9,40.1 -29.77,51.29 -13.86,11.14 -31.43,16.74 -52.73,16.74 -26.39,0 -48.07,-9.49 -65.07,-28.47 -16.96,-18.98 -25.46,-44.92 -25.46,-77.86 0,-34.8 8.55,-61.85 25.6,-81.13 17.05,-19.27 39.51,-28.91 67.33,-28.91 24.31,0 44.04,7.59 59.2,22.72 9.06,8.96 15.8,21.8 20.33,38.59l-39.65 9.93c-2.36,-10.8 -7.26,-19.37 -14.7,-25.65 -7.49,-6.28 -16.55,-9.39 -27.18,-9.39 -14.74,0 -26.71,5.55 -35.86,16.69 -9.2,11.09 -13.78,29.1 -13.78,54.02 0,26.38 4.53,45.21 13.54,56.41 9.06,11.24 20.8,16.84 35.26,16.84 10.68,0 19.87,-3.56 27.54,-10.71 7.67,-7.15 13.22,-18.35 16.55,-33.68zm419.29 77.09l-43.3 0 -17.14 -47.59 -79.63 0 -16.5 47.59 -42.52 0 77.09 -209.06 42.47 0 79.54 209.06zm-73.48 -82.93l-27.59 -77.38 -26.8 77.38 54.4 0zm286.15 82.93l0 -173.73 -58.79 0 0 -35.33 157.5 0 0 35.33 -58.5 0 0 173.73 -40.21 0zm290.53 0l0 -209.06 40.21 0 0 209.06 -40.21 0zm237.3 -103.27c0,-21.31 3.05,-39.22 9.1,-53.72 4.48,-10.66 10.68,-20.24 18.49,-28.71 7.81,-8.47 16.36,-14.74 25.65,-18.88 12.38,-5.5 26.67,-8.27 42.84,-8.27 29.3,0 52.69,9.59 70.29,28.71 17.56,19.17 26.35,45.79 26.35,79.91 0,33.82 -8.74,60.3 -26.16,79.37 -17.43,19.12 -40.76,28.66 -69.93,28.66 -29.53,0 -53.06,-9.49 -70.48,-28.52 -17.43,-18.98 -26.16,-45.16 -26.16,-78.55zm41.32 -1.41c0,23.7 5.22,41.66 15.62,53.92 10.4,12.21 23.62,18.35 39.61,18.35 16.04,0 29.17,-6.08 39.47,-18.2 10.26,-12.17 15.39,-30.37 15.39,-54.65 0,-23.99 -4.99,-41.9 -15.02,-53.68 -9.98,-11.83 -23.25,-17.72 -39.84,-17.72 -16.54,0 -29.9,5.99 -40.02,17.91 -10.12,11.97 -15.2,29.98 -15.2,54.07zm349.87 104.68l0 -209.06 38.91 0 81.71 140.11 0 -140.11 37.16 0 0 209.06 -40.16 0 -80.46 -137.43 0 137.43 -37.16 0z"
   id="path7" />
  <path
   class="fil1"
   d="M3366.46 2518.68c0,87.23 -11.41,165.3 -34.23,234.19 -22.82,68.89 -56.75,127.51 -102.09,175.29 -45.05,48.06 -100.92,84.73 -167.33,110.01 -66.69,25.28 -143.63,37.78 -231.1,37.78 -86.3,0 -161.48,-10.83 -225.54,-32.22 -64.36,-21.39 -117.89,-53.89 -160.89,-98.06 -42.71,-43.89 -74.89,-99.73 -96.24,-167.52 -21.35,-67.78 -32.18,-148.07 -32.18,-240.85 0,-85.01 11.41,-161.68 34.23,-229.74 22.81,-68.06 56.75,-125.84 102.09,-173.63 45.05,-47.78 100.93,-84.45 167.33,-109.73 66.7,-25.56 143.93,-38.34 231.98,-38.34 83.95,0 157.96,10.56 222.32,31.67 64.06,21.11 117.89,53.62 160.89,97.79 43.3,43.89 75.76,99.17 97.7,166.13 21.94,67.23 33.06,146.12 33.06,237.24zm-236.95 10.83c0,-55.28 -4.68,-105.56 -13.75,-150.85 -9.07,-45.28 -24.57,-84.17 -46.51,-116.4 -21.94,-32.22 -51.19,-57.23 -87.76,-75.01 -36.57,-17.5 -82.2,-26.39 -136.9,-26.39 -55.29,0 -101.51,10 -138.37,29.72 -37.15,19.72 -67.28,46.39 -90.1,79.45 -22.82,33.06 -38.91,71.67 -48.27,115.84 -9.36,44.45 -14.04,91.12 -14.04,140.57 0,57.5 4.68,109.18 13.75,155.02 9.07,45.83 24.57,85 46.22,117.79 21.65,32.5 50.61,57.22 87.17,74.45 36.56,16.94 82.49,25.56 137.78,25.56 55.29,0 101.51,-9.72 138.37,-29.45 37.15,-19.44 67.28,-46.11 90.1,-79.73 22.81,-33.61 38.91,-72.78 48.27,-117.51 9.36,-44.73 14.04,-92.51 14.04,-143.07zm1341.54 453.09c0,12.5 -2.33,23.61 -6.73,33.61 -4.68,9.72 -10.82,17.78 -18.72,24.45 -7.6,6.39 -16.67,11.11 -27.2,14.17 -10.82,3.06 -21.35,4.44 -32.18,4.44l-96.24 0c-20.19,0 -37.44,-1.94 -52.07,-5.56 -14.33,-3.89 -27.79,-10.83 -40.08,-20.83 -12.57,-10 -24.28,-23.61 -35.69,-40.84 -11.41,-16.94 -24.28,-39.17 -38.61,-66.39l-275.27 -492.54c-16.09,-29.44 -32.18,-61.11 -48.85,-95.01 -16.67,-33.89 -31.3,-66.95 -44.46,-98.9l-1.76 0c2.34,39.17 4.1,78.06 5.26,116.96 1.17,38.61 1.76,78.89 1.76,120.01l0 551.44c0,5.28 -1.46,10.28 -4.68,14.72 -3.22,4.17 -8.77,7.78 -16.38,10.83 -7.61,3.06 -18.14,5.28 -31.3,6.94 -13.16,1.67 -30.13,2.5 -50.61,2.5 -20.19,0 -36.86,-0.83 -50.02,-2.5 -13.17,-1.67 -23.4,-3.89 -30.71,-6.94 -7.61,-2.78 -12.87,-6.67 -15.51,-10.83 -2.93,-4.44 -4.39,-9.44 -4.39,-14.72l0 -946.75c0,-25.56 7.9,-44.72 23.69,-57.5 15.51,-12.78 34.81,-19.17 57.92,-19.17l120.81 0c21.65,0 40.07,1.67 55,5.28 14.92,3.61 28.08,9.44 39.78,17.5 11.7,8.06 22.82,19.45 33.06,33.89 10.24,14.17 20.77,32.22 31.59,53.34l215.59 385.31c12.58,23.33 24.87,46.39 37.15,68.89 12.28,22.5 24.28,45 35.4,67.5 11.41,22.5 22.52,44.73 33.35,66.4 11.11,21.94 21.65,43.61 31.89,65.28l0.87 0c-1.75,-38.06 -3.22,-77.79 -4.09,-118.9 -0.88,-41.39 -1.17,-80.84 -1.17,-118.34l0 -494.49c0,-5.28 1.76,-10.28 5.26,-14.72 3.22,-4.17 9.07,-8.06 16.97,-11.39 8.19,-3.33 18.72,-5.56 31.89,-6.94 13.17,-1.39 30.13,-1.94 50.61,-1.94 19.6,0 35.98,0.56 49.15,1.94 13.16,1.39 23.11,3.61 30.42,6.94 7.02,3.33 12.29,7.22 14.92,11.39 2.93,4.44 4.39,9.17 4.39,14.72l0 946.75zm850.68 -14.44c0,16.11 -0.58,30 -2.05,41.11 -1.46,11.11 -3.8,20.28 -6.43,27.5 -2.93,7.5 -6.44,12.78 -10.83,15.83 -4.39,3.33 -9.36,5 -14.92,5l-508.12 0c-18.72,0 -34.52,-5.28 -47.39,-15.83 -12.87,-10.56 -19.3,-27.78 -19.3,-51.67l0 -956.75c0,-5.28 1.75,-10.28 5.56,-14.72 3.8,-4.17 9.94,-7.78 18.43,-10.56 8.48,-2.78 20.18,-4.72 34.81,-6.39 14.63,-1.67 32.76,-2.5 54.41,-2.5 22.24,0 40.66,0.83 55,2.5 14.04,1.67 25.74,3.61 34.22,6.39 8.48,2.78 14.63,6.39 18.43,10.56 3.8,4.44 5.56,9.44 5.56,14.72l0 847.57 348.41 0c5.56,0 10.82,1.39 14.92,4.44 4.39,3.06 7.9,7.78 10.83,14.72 2.92,6.67 4.97,15.56 6.43,26.94 1.46,11.11 2.05,24.72 2.05,41.11zm426.51 -310.3l0 370.59c0,5.28 -1.76,10.28 -5.56,14.72 -3.8,4.17 -9.95,7.78 -18.43,10.56 -8.48,2.5 -20.19,4.72 -34.81,6.39 -14.63,1.67 -32.76,2.5 -54.41,2.5 -22.23,0 -40.67,-0.83 -55,-2.5 -14.04,-1.67 -25.75,-3.89 -34.52,-6.39 -9.07,-2.78 -15.21,-6.39 -18.43,-10.56 -3.5,-4.44 -5.26,-9.44 -5.26,-14.72l0 -370.59 -303.65 -573.94c-10.82,-20 -17.84,-35.83 -21.06,-46.95 -3.22,-11.11 -1.46,-19.44 5.26,-25.28 6.43,-5.56 18.72,-9.17 36.27,-10.56 17.55,-1.39 42.12,-1.94 73.43,-1.94 26.33,0 47.1,0.56 62.89,1.67 15.8,1.11 28.08,3.06 37.15,6.11 9.07,3.06 15.8,6.94 20.18,11.67 4.1,5 8.19,11.11 12.29,18.89l124.04 258.91c11.99,25 23.98,51.39 35.69,78.9 11.99,27.78 23.69,56.67 35.98,87.23l1.76 0c10.82,-29.45 21.94,-57.78 33.35,-85.56 11.41,-27.78 22.52,-53.89 33.35,-78.9l121.98 -257.24c2.93,-8.89 6.44,-15.83 10.82,-20.83 4.09,-5.28 10.53,-9.44 19.31,-12.78 8.48,-3.06 20.19,-5.28 35.11,-6.39 14.63,-1.11 34.52,-1.67 59.09,-1.67 32.47,0 57.92,0.56 75.76,1.94 18.14,1.39 30.43,5 36.86,10.56 6.73,5.83 8.19,14.45 4.68,25.84 -3.22,11.39 -10.24,26.67 -20.48,46.39l-303.65 573.94z"
   id="path9" />
  <path
   class="fil2"
   d="M2100.07 2213.34l-48.83 102.35c-4.83,11.48 -8.65,24.35 -12.69,35.78 -12.53,35.38 -23.28,86.98 -27.67,124.92 -1.03,8.83 -2.26,36.23 -4.13,42.24 -0.79,180.37 49.98,328.82 165.02,456.62 107.27,119.17 247.44,191 413.22,215.02 32.46,4.7 145.05,11.34 172.34,-0.44 -7.69,-4.26 -43.99,-10.32 -59.73,-14.38 -23.5,-6.05 -37.29,-10.93 -58.97,-16.68 -5.98,-1.58 -5.19,-1.55 -10.93,-4.43 -4.68,-2.34 -8.41,-3.7 -14.01,-5.78 -8.41,-3.12 -18.27,-6.85 -27.08,-10.62 -16.96,-7.24 -34.8,-17.06 -51.12,-26.03 -33.8,-18.58 -60.81,-36.24 -91.19,-59.58 -59.74,-45.9 -101.02,-95.34 -143.86,-155.88 -16.44,-23.24 -41.31,-71.76 -51.84,-97.8 -89.58,-221.84 -63.29,-443.44 79.2,-634.43 10.69,-14.33 21.66,-28.88 34.11,-42.1 96.89,-102.92 216.85,-176.54 360.56,-205.08 20.55,-4.08 24.15,-4.05 26.71,-11.1 -26.66,-8 -133.29,-3.82 -165.65,1.16 -83.36,12.84 -161.83,36.47 -231.22,73.89 -28.57,15.41 -83.29,50.59 -107.88,72.59 -66.8,59.8 -76.65,68.31 -129.11,141.29l-15.26 18.47z"
   id="path11" />
  <path
   class="fil2"
   d="M2072.91 1745.18c-28.32,5.82 -48.22,13.87 -66.75,30.28l-20.49 18.2c-10.49,7.12 -1.41,-5.88 -9.27,11.69 -4.44,9.92 -7.09,9.23 -16.52,29.9 -8.46,18.54 -2.99,12.49 -7.04,23.46 -30.78,83.41 53.1,217.12 186.27,188.29 89.03,-19.28 141.99,-105.78 123,-184.33 -20.43,-84.55 -103.46,-135.09 -189.2,-117.48z"
   id="path13" />
  <path
   class="fil3"
   d="M1839.64 2117.42c3.73,8.87 0.72,3.87 7.09,10.88l24.8 29.76c75.31,94.07 135.51,242.1 135.22,360.57 1.87,-6 3.1,-33.4 4.13,-42.24 4.39,-37.94 15.13,-89.54 27.66,-124.92 4.05,-11.43 7.87,-24.3 12.69,-35.78l48.83 -102.35c-6.82,-15.35 -42.81,-61.47 -53.68,-74.44 -34.94,-41.66 -90.59,-92.72 -135.31,-121.79 -17.79,-11.56 -63.09,-41.25 -85.81,-47.64l-77.88 -32.87c-31.06,-9.82 -55.45,-16.82 -89.25,-23.37 -68.87,-13.35 -144.94,-13.9 -216.4,-6.07 35.62,14.48 114.4,13.86 225.46,77.75 96.18,55.33 99.83,66.67 166.7,128.9 6.7,6.24 0.61,1.7 5.74,3.6z"
   id="path15" />
  <path
   class="fil3"
   d="M2189.92 1606.7c-4.17,-5.3 -50.42,-27.83 -61.44,-31.8 -14.95,-5.39 -72.99,-1.65 -93.85,-1.06 -63.89,1.81 -128.09,1.21 -191.86,2.95 3.56,6.28 39.23,20.89 47.69,25.03 17.21,8.43 35.22,15.41 52.98,23.72 16.57,7.76 36.53,16.42 52.67,24.31l50 24.19c0.31,0.25 0.92,0.94 1.38,1.41 -25.54,24.84 -62.64,47.01 -66.7,110.04 11.65,-8.98 14.26,-18.39 28.64,-28.37 11.7,-8.11 25.35,-14.19 37.16,-22.06 51.58,-13.72 92.24,-21.93 148.24,12.44 42.81,26.27 57.97,57.28 70.06,98.89 0.26,0.89 0.95,3.48 1.28,4.3 3.93,9.57 0.38,1.54 3.57,6.02 15.57,-46.17 11.21,-58.51 2.8,-105.09l228.12 1.62c-20.93,-14 -298.57,-145.03 -310.72,-146.54z"
   id="path17" />
  <path
   class="fil3"
   d="M2481.17 1874.62c0.7,0.43 1.74,0.25 2.15,1.21l15.88 4.33c6.7,0.41 15.12,-0.91 21.17,-2.85 4.5,-25.36 -1.23,-94.13 -15.81,-109.74 -16.43,0.46 -16.94,16.02 -20.26,45.06 -2.11,18.43 -3.75,42.72 -3.12,61.98z"
   id="path19" />
  <path
   class="fil4"
   d="M2082.93 1790.68c-19.8,4.07 -33.71,9.69 -46.66,21.16l-14.32 12.72c-7.33,4.98 -0.98,-4.11 -6.48,8.17 -3.1,6.94 -4.95,6.45 -11.55,20.9 -5.92,12.96 -2.09,8.73 -4.92,16.4 -21.52,58.3 37.11,151.77 130.2,131.61 62.23,-13.47 99.25,-73.94 85.98,-128.85 -14.28,-59.1 -72.32,-94.43 -132.25,-82.12z"
   id="path21" />
  <path
   class="fil2"
   d="M3354.45 2889.78c-4.48,3.59 -2.1,1.05 -5.08,5.84l-13 19.06c-41.6,58.49 -116.58,117.13 -184.5,136.3 3.74,0.09 19.64,-3.67 24.87,-4.52 22.45,-3.68 53.77,-5.94 76.08,-4.54 7.21,0.45 15.2,0.54 22.57,1.43l66.6 11.28c7.68,-6.41 28.23,-34.55 33.88,-42.9 18.17,-26.81 38.33,-67.02 47.69,-97.39 3.72,-12.08 13.34,-42.88 13.29,-56.93l6.12 -49.98c0.56,-19.39 0.59,-34.51 -1.17,-54.94 -3.59,-41.63 -15.69,-85.3 -31.83,-124.96 -2.48,22.77 10.73,67.8 -7.75,141.84 -16,64.13 -21.91,68.06 -46.65,116.53 -2.48,4.86 -0.87,0.63 -1.12,3.87z"
   id="path23" />
 </g>
</svg>
